ffmpeg started on 2025-05-05 at 19:52:32
Report written to "D:\Convert\FFMetrics\reports\ssim_report-6.txt"
Log level: 32
Command line:
ffmpeg -hide_banner -nostdin -i "G:\\\xc0\xed\xe8\xec\xe5\\\xce\xed\xe3\xee\xe8\xed\xe3\xe8\\!_35_\xcb\xe5\xf2\xee_2024\\JamClub\\\xdf \xef\xe0\xf0\xe8\xf0\xee\xe2\xe0\xeb \xe2\xf1\xb8 \xe2\xf0\xe5\xec\xff, \xf7\xf2\xee\xe1\xfb \xf1\xf2\xe0\xf2\xfc \xf1\xe8\xeb\xfc\xed\xe5\xe9\xf8\xe8\xec \xe0\xe2\xe0\xed\xf2\xfe\xf0\xe8\xf1\xf2\xee\xec\\JamClub_I_Parry_Everything_09_1080p_HEVC.mkv" -i "G:\\\xc0\xed\xe8\xec\xe5\\\xce\xed\xe3\xee\xe8\xed\xe3\xe8\\!_35_\xcb\xe5\xf2\xee_2024\\JamClub\\\xdf \xef\xe0\xf0\xe8\xf0\xee\xe2\xe0\xeb \xe2\xf1\xb8 \xe2\xf0\xe5\xec\xff, \xf7\xf2\xee\xe1\xfb \xf1\xf2\xe0\xf2\xfc \xf1\xe8\xeb\xfc\xed\xe5\xe9\xf8\xe8\xec \xe0\xe2\xe0\xed\xf2\xfe\xf0\xe8\xf1\xf2\xee\xec\\JamClub_I_Parry_Everything_09_1080p.mp4" -lavfi "[0:v]settb=AVTB,setpts=PTS-STARTPTS,format=pix_fmts=yuv420p10,fps=24000/1001,scale=1920:1080:flags=bicubic[main];[1:v]settb=AVTB,setpts=PTS-STARTPTS,format=pix_fmts=yuv420p,fps=24000/1001,scale=1920:1080:flags=bicubic[ref];[main][ref]ssim=eof_action=endall:stats_file='D\\:/Convert/FFMetrics/logs/ssim_logfile-6.txt'" -f null -
Input #0, matroska,webm, from 'G:\Аниме\Онгоинги\!_35_Лето_2024\JamClub\Я парировал всё время, чтобы стать сильнейшим авантюристом\JamClub_I_Parry_Everything_09_1080p_HEVC.mkv':
  Metadata:
    COMPATIBLE_BRANDS: isomiso2avc1mp41
    MAJOR_BRAND     : isom
    MINOR_VERSION   : 512
    ENCODER         : Lavf61.7.100
  Duration: 00:24:04.67, start: -0.001000, bitrate: 1501 kb/s
  Stream #0:0: Video: hevc (Main 10), yuv420p10le(tv, bt709, progressive), 1920x1080 [SAR 1:1 DAR 16:9], 23.98 fps, 23.98 tbr, 1k tbn (default)
      Metadata:
        HANDLER_NAME    : VideoHandler
        VENDOR_ID       : [0][0][0][0]
        ENCODER         : Lavc61.19.100 libx265
        BPS             : 1303826
        DURATION        : 00:24:04.651708333
        NUMBER_OF_FRAMES: 34637
        NUMBER_OF_BYTES : 235446697
        _STATISTICS_WRITING_APP: mkvpropedit v66.0.0 ('Josie') 64-bit
        _STATISTICS_WRITING_DATE_UTC: 2025-05-05 11:28:02
        _STATISTICS_TAGS: BPS DURATION NUMBER_OF_FRAMES NUMBER_OF_BYTES
  Stream #0:1(eng): Audio: aac (LC), 48000 Hz, stereo, fltp (default)
      Metadata:
        HANDLER_NAME    : SoundHandler
        VENDOR_ID       : [0][0][0][0]
        ENCODER         : Lavc61.19.100 aac
        BPS             : 193865
        DURATION        : 00:24:04.632000000
        NUMBER_OF_FRAMES: 67718
        NUMBER_OF_BYTES : 35007954
        _STATISTICS_WRITING_APP: mkvpropedit v66.0.0 ('Josie') 64-bit
        _STATISTICS_WRITING_DATE_UTC: 2025-05-05 11:28:02
        _STATISTICS_TAGS: BPS DURATION NUMBER_OF_FRAMES NUMBER_OF_BYTES
Input #1, mov,mp4,m4a,3gp,3g2,mj2, from 'G:\Аниме\Онгоинги\!_35_Лето_2024\JamClub\Я парировал всё время, чтобы стать сильнейшим авантюристом\JamClub_I_Parry_Everything_09_1080p.mp4':
  Metadata:
    major_brand     : isom
    minor_version   : 512
    compatible_brands: isomiso2avc1mp41
    encoder         : Lavf60.16.100
  Duration: 00:24:04.65, start: 0.000000, bitrate: 4757 kb/s
  Stream #1:0[0x1](und): Video: h264 (High) (avc1 / 0x31637661), yuv420p(progressive), 1920x1080 [SAR 1:1 DAR 16:9], 4559 kb/s, 23.98 fps, 23.98 tbr, 90k tbn (default)
      Metadata:
        handler_name    : VideoHandler
        vendor_id       : [0][0][0][0]
  Stream #1:1[0x2](eng): Audio: aac (LC) (mp4a / 0x6134706D), 48000 Hz, stereo, fltp, 191 kb/s (default)
      Metadata:
        handler_name    : SoundHandler
        vendor_id       : [0][0][0][0]
Stream mapping:
  Stream #0:0 (hevc) -> settb:default
  Stream #1:0 (h264) -> settb:default
  ssim:default -> Stream #0:0 (wrapped_avframe)
  Stream #0:1 -> #0:1 (aac (native) -> pcm_s16le (native))
Output #0, null, to 'pipe:':
  Metadata:
    COMPATIBLE_BRANDS: isomiso2avc1mp41
    MAJOR_BRAND     : isom
    MINOR_VERSION   : 512
    encoder         : Lavf61.7.100
  Stream #0:0: Video: wrapped_avframe, yuv420p10le(tv, bt709, progressive), 1920x1080 [SAR 1:1 DAR 16:9], q=2-31, 200 kb/s, 23.98 fps, 23.98 tbn
      Metadata:
        encoder         : Lavc61.19.100 wrapped_avframe
  Stream #0:1(eng): Audio: pcm_s16le, 48000 Hz, stereo, s16, 1536 kb/s (default)
      Metadata:
        HANDLER_NAME    : SoundHandler
        VENDOR_ID       : [0][0][0][0]
        _STATISTICS_TAGS: BPS DURATION NUMBER_OF_FRAMES NUMBER_OF_BYTES
        BPS             : 193865
        DURATION        : 00:24:04.632000000
        NUMBER_OF_FRAMES: 67718
        NUMBER_OF_BYTES : 35007954
        _STATISTICS_WRITING_APP: mkvpropedit v66.0.0 ('Josie') 64-bit
        _STATISTICS_WRITING_DATE_UTC: 2025-05-05 11:28:02
        encoder         : Lavc61.19.100 pcm_s16le
frame=  112 fps=0.0 q=-0.0 size=N/A time=00:00:04.67 bitrate=N/A speed=8.93x    frame=  269 fps=258 q=-0.0 size=N/A time=00:00:11.21 bitrate=N/A speed=10.8x    frame=  462 fps=298 q=-0.0 size=N/A time=00:00:19.26 bitrate=N/A speed=12.4x    frame=  699 fps=337 q=-0.0 size=N/A time=00:00:29.15 bitrate=N/A speed=14.1x    frame=  945 fps=366 q=-0.0 size=N/A time=00:00:39.41 bitrate=N/A speed=15.3x    frame= 1201 fps=388 q=-0.0 size=N/A time=00:00:50.09 bitrate=N/A speed=16.2x    frame= 1443 fps=399 q=-0.0 size=N/A time=00:01:00.18 bitrate=N/A speed=16.6x    frame= 1669 fps=404 q=-0.0 size=N/A time=00:01:09.61 bitrate=N/A speed=16.9x    frame= 1887 fps=407 q=-0.0 size=N/A time=00:01:18.70 bitrate=N/A speed=  17x    frame= 2123 fps=411 q=-0.0 size=N/A time=00:01:28.54 bitrate=N/A speed=17.2x    frame= 2330 fps=410 q=-0.0 size=N/A time=00:01:37.18 bitrate=N/A speed=17.1x    frame= 2504 fps=405 q=-0.0 size=N/A time=00:01:44.43 bitrate=N/A speed=16.9x    frame= 2679 fps=399 q=-0.0 size=N/A time=00:01:51.73 bitrate=N/A speed=16.6x    frame= 2885 fps=400 q=-0.0 size=N/A time=00:02:00.32 bitrate=N/A speed=16.7x    frame= 3085 fps=399 q=-0.0 size=N/A time=00:02:08.67 bitrate=N/A speed=16.6x    frame= 3244 fps=393 q=-0.0 size=N/A time=00:02:15.30 bitrate=N/A speed=16.4x    frame= 3399 fps=387 q=-0.0 size=N/A time=00:02:21.76 bitrate=N/A speed=16.2x    frame= 3551 fps=382 q=-0.0 size=N/A time=00:02:28.10 bitrate=N/A speed=  16x    frame= 3794 fps=387 q=-0.0 size=N/A time=00:02:38.24 bitrate=N/A speed=16.2x    frame= 4037 fps=391 q=-0.0 size=N/A time=00:02:48.37 bitrate=N/A speed=16.3x    frame= 4290 fps=396 q=-0.0 size=N/A time=00:02:58.92 bitrate=N/A speed=16.5x    frame= 4556 fps=401 q=-0.0 size=N/A time=00:03:10.02 bitrate=N/A speed=16.7x    frame= 4798 fps=404 q=-0.0 size=N/A time=00:03:20.11 bitrate=N/A speed=16.9x    frame= 5047 fps=408 q=-0.0 size=N/A time=00:03:30.50 bitrate=N/A speed=  17x    frame= 5329 fps=413 q=-0.0 size=N/A time=00:03:42.26 bitrate=N/A speed=17.2x    frame= 5587 fps=416 q=-0.0 size=N/A time=00:03:53.02 bitrate=N/A speed=17.4x    frame= 5831 fps=418 q=-0.0 size=N/A time=00:04:03.20 bitrate=N/A speed=17.4x    frame= 6092 fps=421 q=-0.0 size=N/A time=00:04:14.08 bitrate=N/A speed=17.6x    frame= 6334 fps=423 q=-0.0 size=N/A time=00:04:24.18 bitrate=N/A speed=17.6x    frame= 6533 fps=422 q=-0.0 size=N/A time=00:04:32.48 bitrate=N/A speed=17.6x    frame= 6814 fps=426 q=-0.0 size=N/A time=00:04:44.20 bitrate=N/A speed=17.8x    frame= 7064 fps=428 q=-0.0 size=N/A time=00:04:54.62 bitrate=N/A speed=17.8x    frame= 7289 fps=428 q=-0.0 size=N/A time=00:05:04.01 bitrate=N/A speed=17.8x    frame= 7549 fps=430 q=-0.0 size=N/A time=00:05:14.85 bitrate=N/A speed=17.9x    frame= 7842 fps=434 q=-0.0 size=N/A time=00:05:27.07 bitrate=N/A speed=18.1x    frame= 8075 fps=434 q=-0.0 size=N/A time=00:05:36.79 bitrate=N/A speed=18.1x    frame= 8356 fps=438 q=-0.0 size=N/A time=00:05:48.51 bitrate=N/A speed=18.3x    frame= 8608 fps=439 q=-0.0 size=N/A time=00:05:59.02 bitrate=N/A speed=18.3x    frame= 8867 fps=441 q=-0.0 size=N/A time=00:06:09.82 bitrate=N/A speed=18.4x    frame= 9057 fps=439 q=-0.0 size=N/A time=00:06:17.75 bitrate=N/A speed=18.3x    frame= 9265 fps=438 q=-0.0 size=N/A time=00:06:26.42 bitrate=N/A speed=18.3x    frame= 9443 fps=435 q=-0.0 size=N/A time=00:06:33.85 bitrate=N/A speed=18.2x    frame= 9660 fps=435 q=-0.0 size=N/A time=00:06:42.90 bitrate=N/A speed=18.1x    frame= 9901 fps=436 q=-0.0 size=N/A time=00:06:52.95 bitrate=N/A speed=18.2x    frame=10125 fps=436 q=-0.0 size=N/A time=00:07:02.29 bitrate=N/A speed=18.2x    frame=10341 fps=435 q=-0.0 size=N/A time=00:07:11.30 bitrate=N/A speed=18.2x    frame=10568 fps=435 q=-0.0 size=N/A time=00:07:20.77 bitrate=N/A speed=18.2x    frame=10833 fps=437 q=-0.0 size=N/A time=00:07:31.82 bitrate=N/A speed=18.2x    frame=11080 fps=438 q=-0.0 size=N/A time=00:07:42.12 bitrate=N/A speed=18.3x    frame=11286 fps=437 q=-0.0 size=N/A time=00:07:50.72 bitrate=N/A speed=18.2x    frame=11492 fps=436 q=-0.0 size=N/A time=00:07:59.31 bitrate=N/A speed=18.2x    frame=11705 fps=436 q=-0.0 size=N/A time=00:08:08.19 bitrate=N/A speed=18.2x    frame=11958 fps=437 q=-0.0 size=N/A time=00:08:18.74 bitrate=N/A speed=18.2x    frame=12218 fps=438 q=-0.0 size=N/A time=00:08:29.59 bitrate=N/A speed=18.3x    frame=12467 fps=439 q=-0.0 size=N/A time=00:08:39.97 bitrate=N/A speed=18.3x    frame=12705 fps=439 q=-0.0 size=N/A time=00:08:49.90 bitrate=N/A speed=18.3x    frame=12970 fps=441 q=-0.0 size=N/A time=00:09:00.95 bitrate=N/A speed=18.4x    frame=13239 fps=442 q=-0.0 size=N/A time=00:09:12.17 bitrate=N/A speed=18.4x    frame=13495 fps=443 q=-0.0 size=N/A time=00:09:22.85 bitrate=N/A speed=18.5x    frame=13731 fps=443 q=-0.0 size=N/A time=00:09:32.69 bitrate=N/A speed=18.5x    frame=13957 fps=443 q=-0.0 size=N/A time=00:09:42.12 bitrate=N/A speed=18.5x    frame=14159 fps=442 q=-0.0 size=N/A time=00:09:50.54 bitrate=N/A speed=18.4x    frame=14404 fps=443 q=-0.0 size=N/A time=00:10:00.76 bitrate=N/A speed=18.5x    frame=14599 fps=442 q=-0.0 size=N/A time=00:10:08.89 bitrate=N/A speed=18.4x    frame=14858 fps=443 q=-0.0 size=N/A time=00:10:19.70 bitrate=N/A speed=18.5x    frame=15098 fps=443 q=-0.0 size=N/A time=00:10:29.71 bitrate=N/A speed=18.5x    frame=15354 fps=444 q=-0.0 size=N/A time=00:10:40.38 bitrate=N/A speed=18.5x    frame=15595 fps=444 q=-0.0 size=N/A time=00:10:50.44 bitrate=N/A speed=18.5x    frame=15869 fps=445 q=-0.0 size=N/A time=00:11:01.86 bitrate=N/A speed=18.6x    frame=16106 fps=446 q=-0.0 size=N/A time=00:11:11.75 bitrate=N/A speed=18.6x    frame=16347 fps=446 q=-0.0 size=N/A time=00:11:21.80 bitrate=N/A speed=18.6x    frame=16615 fps=447 q=-0.0 size=N/A time=00:11:32.98 bitrate=N/A speed=18.6x    frame=16857 fps=447 q=-0.0 size=N/A time=00:11:43.07 bitrate=N/A speed=18.7x    frame=17067 fps=447 q=-0.0 size=N/A time=00:11:51.83 bitrate=N/A speed=18.6x    frame=17269 fps=446 q=-0.0 size=N/A time=00:12:00.26 bitrate=N/A speed=18.6x    frame=17504 fps=446 q=-0.0 size=N/A time=00:12:10.06 bitrate=N/A speed=18.6x    frame=17728 fps=446 q=-0.0 size=N/A time=00:12:19.40 bitrate=N/A speed=18.6x    frame=17991 fps=447 q=-0.0 size=N/A time=00:12:30.37 bitrate=N/A speed=18.6x    frame=18187 fps=446 q=-0.0 size=N/A time=00:12:38.54 bitrate=N/A speed=18.6x    frame=18402 fps=446 q=-0.0 size=N/A time=00:12:47.51 bitrate=N/A speed=18.6x    frame=18589 fps=445 q=-0.0 size=N/A time=00:12:55.31 bitrate=N/A speed=18.5x    frame=18826 fps=445 q=-0.0 size=N/A time=00:13:05.20 bitrate=N/A speed=18.5x    frame=19092 fps=446 q=-0.0 size=N/A time=00:13:16.29 bitrate=N/A speed=18.6x    frame=19343 fps=446 q=-0.0 size=N/A time=00:13:26.76 bitrate=N/A speed=18.6x    frame=19619 fps=447 q=-0.0 size=N/A time=00:13:38.27 bitrate=N/A speed=18.6x    frame=19877 fps=448 q=-0.0 size=N/A time=00:13:49.03 bitrate=N/A speed=18.7x    frame=20166 fps=449 q=-0.0 size=N/A time=00:14:01.09 bitrate=N/A speed=18.7x    frame=20402 fps=449 q=-0.0 size=N/A time=00:14:10.93 bitrate=N/A speed=18.7x    frame=20607 fps=449 q=-0.0 size=N/A time=00:14:19.48 bitrate=N/A speed=18.7x    frame=20829 fps=448 q=-0.0 size=N/A time=00:14:28.74 bitrate=N/A speed=18.7x    frame=21011 fps=447 q=-0.0 size=N/A time=00:14:36.33 bitrate=N/A speed=18.7x    frame=21237 fps=447 q=-0.0 size=N/A time=00:14:45.75 bitrate=N/A speed=18.6x    frame=21459 fps=447 q=-0.0 size=N/A time=00:14:55.01 bitrate=N/A speed=18.6x    frame=21698 fps=447 q=-0.0 size=N/A time=00:15:04.98 bitrate=N/A speed=18.6x    frame=21872 fps=446 q=-0.0 size=N/A time=00:15:12.24 bitrate=N/A speed=18.6x    frame=22113 fps=446 q=-0.0 size=N/A time=00:15:22.29 bitrate=N/A speed=18.6x    frame=22364 fps=447 q=-0.0 size=N/A time=00:15:32.76 bitrate=N/A speed=18.6x    frame=22630 fps=447 q=-0.0 size=N/A time=00:15:43.85 bitrate=N/A speed=18.7x    frame=22876 fps=448 q=-0.0 size=N/A time=00:15:54.11 bitrate=N/A speed=18.7x    frame=23065 fps=447 q=-0.0 size=N/A time=00:16:02.00 bitrate=N/A speed=18.6x    frame=23335 fps=448 q=-0.0 size=N/A time=00:16:13.26 bitrate=N/A speed=18.7x    frame=23499 fps=446 q=-0.0 size=N/A time=00:16:20.10 bitrate=N/A speed=18.6x    frame=23643 fps=445 q=-0.0 size=N/A time=00:16:26.11 bitrate=N/A speed=18.6x    frame=23823 fps=444 q=-0.0 size=N/A time=00:16:33.61 bitrate=N/A speed=18.5x    frame=24036 fps=444 q=-0.0 size=N/A time=00:16:42.50 bitrate=N/A speed=18.5x    frame=24210 fps=443 q=-0.0 size=N/A time=00:16:49.75 bitrate=N/A speed=18.5x    frame=24425 fps=442 q=-0.0 size=N/A time=00:16:58.72 bitrate=N/A speed=18.4x    frame=24606 fps=441 q=-0.0 size=N/A time=00:17:06.27 bitrate=N/A speed=18.4x    frame=24812 fps=441 q=-0.0 size=N/A time=00:17:14.86 bitrate=N/A speed=18.4x    frame=25051 fps=441 q=-0.0 size=N/A time=00:17:24.83 bitrate=N/A speed=18.4x    frame=25212 fps=440 q=-0.0 size=N/A time=00:17:31.55 bitrate=N/A speed=18.4x    frame=25407 fps=439 q=-0.0 size=N/A time=00:17:39.68 bitrate=N/A speed=18.3x    frame=25673 fps=440 q=-0.0 size=N/A time=00:17:50.77 bitrate=N/A speed=18.4x    frame=25908 fps=440 q=-0.0 size=N/A time=00:18:00.57 bitrate=N/A speed=18.4x    frame=26119 fps=440 q=-0.0 size=N/A time=00:18:09.37 bitrate=N/A speed=18.4x    frame=26366 fps=440 q=-0.0 size=N/A time=00:18:19.68 bitrate=N/A speed=18.4x    frame=26598 fps=440 q=-0.0 size=N/A time=00:18:29.35 bitrate=N/A speed=18.4x    frame=26838 fps=441 q=-0.0 size=N/A time=00:18:39.40 bitrate=N/A speed=18.4x    frame=27099 fps=441 q=-0.0 size=N/A time=00:18:50.25 bitrate=N/A speed=18.4x    frame=27309 fps=441 q=-0.0 size=N/A time=00:18:59.01 bitrate=N/A speed=18.4x    frame=27532 fps=441 q=-0.0 size=N/A time=00:19:08.31 bitrate=N/A speed=18.4x    frame=27808 fps=442 q=-0.0 size=N/A time=00:19:19.82 bitrate=N/A speed=18.4x    frame=28072 fps=442 q=-0.0 size=N/A time=00:19:30.83 bitrate=N/A speed=18.4x    frame=28311 fps=442 q=-0.0 size=N/A time=00:19:40.80 bitrate=N/A speed=18.4x    frame=28576 fps=443 q=-0.0 size=N/A time=00:19:51.85 bitrate=N/A speed=18.5x    frame=28849 fps=443 q=-0.0 size=N/A time=00:20:03.24 bitrate=N/A speed=18.5x    frame=29097 fps=444 q=-0.0 size=N/A time=00:20:13.58 bitrate=N/A speed=18.5x    frame=29326 fps=444 q=-0.0 size=N/A time=00:20:23.13 bitrate=N/A speed=18.5x    frame=29522 fps=443 q=-0.0 size=N/A time=00:20:31.31 bitrate=N/A speed=18.5x    frame=29730 fps=443 q=-0.0 size=N/A time=00:20:39.98 bitrate=N/A speed=18.5x    frame=29957 fps=443 q=-0.0 size=N/A time=00:20:49.45 bitrate=N/A speed=18.5x    frame=30190 fps=443 q=-0.0 size=N/A time=00:20:59.17 bitrate=N/A speed=18.5x    frame=30447 fps=443 q=-0.0 size=N/A time=00:21:09.89 bitrate=N/A speed=18.5x    frame=30711 fps=444 q=-0.0 size=N/A time=00:21:20.90 bitrate=N/A speed=18.5x    frame=30935 fps=444 q=-0.0 size=N/A time=00:21:30.24 bitrate=N/A speed=18.5x    frame=31176 fps=444 q=-0.0 size=N/A time=00:21:40.29 bitrate=N/A speed=18.5x    frame=31397 fps=444 q=-0.0 size=N/A time=00:21:49.51 bitrate=N/A speed=18.5x    frame=31619 fps=444 q=-0.0 size=N/A time=00:21:58.77 bitrate=N/A speed=18.5x    frame=31865 fps=444 q=-0.0 size=N/A time=00:22:09.03 bitrate=N/A speed=18.5x    frame=32088 fps=444 q=-0.0 size=N/A time=00:22:18.33 bitrate=N/A speed=18.5x    frame=32276 fps=443 q=-0.0 size=N/A time=00:22:26.17 bitrate=N/A speed=18.5x    frame=32526 fps=444 q=-0.0 size=N/A time=00:22:36.60 bitrate=N/A speed=18.5x    frame=32765 fps=444 q=-0.0 size=N/A time=00:22:46.57 bitrate=N/A speed=18.5x    frame=32937 fps=443 q=-0.0 size=N/A time=00:22:53.74 bitrate=N/A speed=18.5x    frame=33124 fps=442 q=-0.0 size=N/A time=00:23:01.54 bitrate=N/A speed=18.5x    frame=33358 fps=443 q=-0.0 size=N/A time=00:23:11.30 bitrate=N/A speed=18.5x    frame=33556 fps=442 q=-0.0 size=N/A time=00:23:19.56 bitrate=N/A speed=18.4x    frame=33737 fps=442 q=-0.0 size=N/A time=00:23:27.11 bitrate=N/A speed=18.4x    frame=33890 fps=441 q=-0.0 size=N/A time=00:23:33.49 bitrate=N/A speed=18.4x    frame=34093 fps=440 q=-0.0 size=N/A time=00:23:41.96 bitrate=N/A speed=18.4x    frame=34298 fps=440 q=-0.0 size=N/A time=00:23:50.51 bitrate=N/A speed=18.3x    frame=34503 fps=440 q=-0.0 size=N/A time=00:23:59.06 bitrate=N/A speed=18.3x    [Parsed_ssim_10 @ 000001b8a23c5cc0] SSIM Y:0.993878 (22.131034) U:0.993981 (22.204866) V:0.994344 (22.474901) All:0.993973 (22.198863)
[out#0/null @ 000001b89bd81ec0] video:14883KiB audio:270872KiB subtitle:0KiB other streams:0KiB global headers:0KiB muxing overhead: unknown
frame=34637 fps=440 q=-0.0 Lsize=N/A time=00:24:04.65 bitrate=N/A speed=18.3x    
